<svg width="438" height="415" viewBox="0 0 438 415" fill="none" xmlns="http://www.w3.org/2000/svg">
<path d="M263.5 66C167.126 66 89 144.126 89 240.5C89 336.873 167.126 414.999 263.5 414.999C359.873 414.999 437.999 336.873 437.999 240.5C437.897 144.169 359.831 66.103 263.5 66ZM263.5 390.071C180.894 390.071 113.928 323.106 113.928 240.5C113.928 157.894 180.894 90.9283 263.5 90.9283C346.106 90.9283 413.071 157.894 413.071 240.5C412.982 323.069 346.069 389.982 263.5 390.071Z" fill="#D80027"/>
<path d="M201.178 240.5C214.946 240.5 226.107 229.339 226.107 215.571C226.107 201.804 214.946 190.643 201.178 190.643C187.411 190.643 176.25 201.804 176.25 215.571C176.25 229.339 187.411 240.5 201.178 240.5Z" fill="#D80027"/>
<path d="M325.822 240.5C339.589 240.5 350.75 229.339 350.75 215.571C350.75 201.804 339.589 190.643 325.822 190.643C312.054 190.643 300.893 201.804 300.893 215.571C300.893 229.339 312.054 240.5 325.822 240.5Z" fill="#D80027"/>
<path d="M311.23 282.623C307.113 277.106 299.303 275.971 293.786 280.089C293.547 280.267 293.315 280.453 293.09 280.648C275.463 293.522 251.535 293.522 233.909 280.648C228.701 276.146 220.829 276.72 216.328 281.928C211.827 287.135 212.4 295.007 217.608 299.508C217.833 299.703 218.065 299.889 218.304 300.067C244.984 320.46 282.015 320.46 308.695 300.067C314.212 295.95 315.347 288.14 311.23 282.623Z" fill="#D80027"/>
<g clip-path="url(#clip0)">
<path d="M272.768 231.502C280.979 231.358 287.518 224.587 287.375 216.377C287.232 208.167 272.101 193.276 272.101 193.276C272.101 193.276 257.499 208.686 257.643 216.896C257.786 225.106 264.558 231.645 272.768 231.502ZM271.595 225.149C266.906 225.226 263.039 221.492 262.952 216.803C263.039 221.492 266.906 225.226 271.595 225.149Z" fill="#6FB000"/>
<path d="M296.431 187.541C296.392 185.293 292.606 179.502 287.695 173.831C283.224 179.386 279.399 185.414 279.441 187.837C279.523 192.529 283.393 196.266 288.085 196.184C292.776 196.102 296.513 192.232 296.431 187.541Z" fill="#6FB000"/>
<path d="M272.906 178.55C272.679 177.718 271.354 175.199 268.534 171.486C266.002 175.069 264.618 177.715 264.411 178.674C264.445 181.02 266.375 182.894 268.721 182.859C271.067 182.825 272.941 180.895 272.906 178.549L272.906 178.55Z" fill="#6FB000"/>
<path d="M272.787 232.563C263.994 232.707 256.744 225.706 256.581 216.914C256.432 208.368 270.719 193.194 271.33 192.546L272.075 191.76L272.846 192.52C273.48 193.146 288.288 207.812 288.437 216.358C288.58 225.151 281.579 232.4 272.787 232.563ZM272.128 194.815C269.192 198.052 258.588 210.223 258.705 216.877C258.838 224.501 265.126 230.573 272.75 230.44C280.374 230.307 286.446 224.019 286.313 216.395C286.197 209.737 275.175 197.949 272.128 194.815Z" fill="#231F20"/>
<path d="M271.614 226.211C266.338 226.297 261.988 222.097 261.89 216.822L264.014 216.784C264.091 220.887 267.474 224.154 271.577 224.087L271.614 226.211Z" fill="#231F20"/>
<path d="M288.103 197.245C282.828 197.332 278.478 193.131 278.38 187.856C278.312 183.983 285.441 174.939 286.87 173.166L287.666 172.176L288.498 173.136C292.615 177.891 297.441 184.511 297.493 187.522C297.58 192.798 293.379 197.147 288.103 197.245ZM287.724 175.5C282.944 181.593 280.476 186.264 280.503 187.819C280.575 191.924 283.961 195.193 288.066 195.122C292.171 195.05 295.441 191.664 295.37 187.559C295.343 186.038 292.664 181.364 287.724 175.5Z" fill="#231F20"/>
<path d="M268.749 183.775C265.876 183.84 263.478 181.597 263.35 178.727L263.347 178.588L263.377 178.451C263.659 177.139 265.345 174.168 267.671 170.872L268.503 169.688L269.38 170.841C272.088 174.414 273.612 177.14 273.924 178.264L273.966 178.416L273.969 178.571C273.923 181.432 271.61 183.738 268.749 183.775ZM265.484 178.772C265.656 180.421 267.054 181.668 268.712 181.652C270.363 181.629 271.721 180.344 271.834 178.697C270.953 176.783 269.857 174.976 268.566 173.311C267.332 175.007 266.298 176.839 265.484 178.772Z" fill="#231F20"/>
</g>
<g clip-path="url(#clip1)">
<path d="M22.2926 41.0719C26.4435 42.8346 29.2165 46.4772 30.0502 50.585C36.7803 51.4358 45.4599 53.8819 54.5459 57.7416C62.4151 61.0819 69.307 64.936 74.4509 68.6693C78.7586 60.1362 83.4979 53.3543 87.5919 49.6492C85.7253 47.5669 84.9732 45.0888 85.8511 43.0206C87.2728 39.6763 92.4126 38.6565 97.3319 40.7411C102.257 42.8314 105.095 47.2388 103.673 50.5835C102.792 52.6595 100.489 53.8289 97.6922 53.9347C97.8629 59.0511 96.5044 66.4093 93.8025 74.6494L257.556 139.203L270.749 160.864L246.263 165.812L85.5844 93.8907C81.6071 101.333 77.3588 107.244 73.6379 110.606C75.5055 112.688 76.261 115.164 75.3835 117.233C73.964 120.582 68.8201 121.6 63.9 119.508C58.9769 117.422 56.1394 113.014 57.5604 109.668C58.4388 107.595 60.747 106.422 63.5408 106.314C63.3587 100.799 64.9468 92.674 68.0916 83.6516C61.8303 82.5434 54.2705 80.266 46.4033 76.9229C37.3175 73.0651 29.5303 68.5236 24.2374 64.2756C20.7029 66.5296 16.1599 67.0638 12.0095 65.3025C5.31902 62.4614 2.19651 54.7329 5.03534 48.0407C7.87252 41.3507 15.5979 38.2295 22.2926 41.0719ZM243.389 161.733L256.992 159.173L245.75 156.176L93.77 91.6682L243.389 161.733Z" fill="black"/>
</g>
<path d="M275.541 141.565C259.1 135.804 256.25 140.925 253.181 145.406C228.454 154.111 230.164 159.488 234.767 167.169C235.425 169.302 238.318 173.186 244.632 171.649C253.181 170.369 255.154 169.089 258.442 167.169C263.238 164.368 273.787 162.261 278.829 157.567C285.405 149.246 274.883 145.406 275.541 141.565Z" fill="#6FB000" stroke="black" stroke-width="2"/>
<defs>
<clipPath id="clip0">
<rect width="62.9432" height="62.9404" fill="white" transform="matrix(0.999848 -0.0174516 0.0174532 0.999848 245 170.099)"/>
</clipPath>
<clipPath id="clip1">
<rect width="208" height="208" fill="white" transform="matrix(-0.374607 -0.927184 -0.927184 0.374607 270.772 160.854)"/>
</clipPath>
</defs>
</svg>
