<svg width="491" height="491" viewBox="0 0 491 491" fill="none" xmlns="http://www.w3.org/2000/svg">
<g clip-path="url(#clip0)">
<path d="M245.333 0C109.839 0 0 109.839 0 245.333C0 380.827 109.839 490.666 245.333 490.666C380.827 490.666 490.666 380.827 490.666 245.333C490.514 109.903 380.764 0.153 245.333 0Z" fill="#D80027"/>
<path d="M290.133 104.533C270.994 86.244 240.856 86.244 221.717 104.533C202.824 123.414 202.815 154.036 221.696 172.928C221.703 172.935 221.71 172.942 221.717 172.949L240.917 192.149H117.333C87.878 192.149 64 216.027 64 245.483C64 274.938 87.878 298.816 117.333 298.816H240.917L221.717 318.016C204.195 338.191 206.346 368.75 226.521 386.273C244.78 402.131 271.944 402.072 290.133 386.134L408.384 267.883C420.876 255.387 420.876 235.131 408.384 222.635L290.133 104.533Z" fill="#FAFAFA"/>
</g>
<defs>
<clipPath id="clip0">
<rect width="490.667" height="490.667" fill="white"/>
</clipPath>
</defs>
</svg>
