<svg width="404" height="75" viewBox="0 0 404 75" fill="none" xmlns="http://www.w3.org/2000/svg">
<path d="M11.3125 54.0938H32.875V59H5.28125V13.5H11.3125V54.0938ZM45.0938 59H39.3125V25.1875H45.0938V59ZM38.8438 16.2188C38.8438 15.2812 39.125 14.4896 39.6875 13.8438C40.2708 13.1979 41.125 12.875 42.25 12.875C43.375 12.875 44.2292 13.1979 44.8125 13.8438C45.3958 14.4896 45.6875 15.2812 45.6875 16.2188C45.6875 17.1562 45.3958 17.9375 44.8125 18.5625C44.2292 19.1875 43.375 19.5 42.25 19.5C41.125 19.5 40.2708 19.1875 39.6875 18.5625C39.125 17.9375 38.8438 17.1562 38.8438 16.2188ZM57.2188 59V29.6562H51.875V25.1875H57.2188V21.7188C57.2188 18.0938 58.1875 15.2917 60.125 13.3125C62.0625 11.3333 64.8021 10.3438 68.3438 10.3438C69.6771 10.3438 71 10.5208 72.3125 10.875L72 15.5625C71.0208 15.375 69.9792 15.2812 68.875 15.2812C67 15.2812 65.5521 15.8333 64.5312 16.9375C63.5104 18.0208 63 19.5833 63 21.625V25.1875H70.2188V29.6562H63V59H57.2188ZM89.9062 59.625C85.3229 59.625 81.5938 58.125 78.7188 55.125C75.8438 52.1042 74.4062 48.0729 74.4062 43.0312V41.9688C74.4062 38.6146 75.0417 35.625 76.3125 33C77.6042 30.3542 79.3958 28.2917 81.6875 26.8125C84 25.3125 86.5 24.5625 89.1875 24.5625C93.5833 24.5625 97 26.0104 99.4375 28.9062C101.875 31.8021 103.094 35.9479 103.094 41.3438V43.75H80.1875C80.2708 47.0833 81.2396 49.7812 83.0938 51.8438C84.9688 53.8854 87.3438 54.9062 90.2188 54.9062C92.2604 54.9062 93.9896 54.4896 95.4062 53.6562C96.8229 52.8229 98.0625 51.7188 99.125 50.3438L102.656 53.0938C99.8229 57.4479 95.5729 59.625 89.9062 59.625ZM89.1875 29.3125C86.8542 29.3125 84.8958 30.1667 83.3125 31.875C81.7292 33.5625 80.75 35.9375 80.375 39H97.3125V38.5625C97.1458 35.625 96.3542 33.3542 94.9375 31.75C93.5208 30.125 91.6042 29.3125 89.1875 29.3125ZM124.125 38.7188C118.979 37.2396 115.229 35.4271 112.875 33.2812C110.542 31.1146 109.375 28.4479 109.375 25.2812C109.375 21.6979 110.802 18.7396 113.656 16.4062C116.531 14.0521 120.26 12.875 124.844 12.875C127.969 12.875 130.75 13.4792 133.188 14.6875C135.646 15.8958 137.542 17.5625 138.875 19.6875C140.229 21.8125 140.906 24.1354 140.906 26.6562H134.875C134.875 23.9062 134 21.75 132.25 20.1875C130.5 18.6042 128.031 17.8125 124.844 17.8125C121.885 17.8125 119.573 18.4688 117.906 19.7812C116.26 21.0729 115.438 22.875 115.438 25.1875C115.438 27.0417 116.219 28.6146 117.781 29.9062C119.365 31.1771 122.042 32.3438 125.812 33.4062C129.604 34.4688 132.562 35.6458 134.688 36.9375C136.833 38.2083 138.417 39.6979 139.438 41.4062C140.479 43.1146 141 45.125 141 47.4375C141 51.125 139.562 54.0833 136.688 56.3125C133.812 58.5208 129.969 59.625 125.156 59.625C122.031 59.625 119.115 59.0312 116.406 57.8438C113.698 56.6354 111.604 54.9896 110.125 52.9062C108.667 50.8229 107.938 48.4583 107.938 45.8125H113.969C113.969 48.5625 114.979 50.7396 117 52.3438C119.042 53.9271 121.76 54.7188 125.156 54.7188C128.323 54.7188 130.75 54.0729 132.438 52.7812C134.125 51.4896 134.969 49.7292 134.969 47.5C134.969 45.2708 134.188 43.5521 132.625 42.3438C131.062 41.1146 128.229 39.9062 124.125 38.7188ZM155.656 17V25.1875H161.969V29.6562H155.656V50.625C155.656 51.9792 155.938 53 156.5 53.6875C157.062 54.3542 158.021 54.6875 159.375 54.6875C160.042 54.6875 160.958 54.5625 162.125 54.3125V59C160.604 59.4167 159.125 59.625 157.688 59.625C155.104 59.625 153.156 58.8438 151.844 57.2812C150.531 55.7188 149.875 53.5 149.875 50.625V29.6562H143.719V25.1875H149.875V17H155.656ZM182.781 59.625C178.198 59.625 174.469 58.125 171.594 55.125C168.719 52.1042 167.281 48.0729 167.281 43.0312V41.9688C167.281 38.6146 167.917 35.625 169.188 33C170.479 30.3542 172.271 28.2917 174.562 26.8125C176.875 25.3125 179.375 24.5625 182.062 24.5625C186.458 24.5625 189.875 26.0104 192.312 28.9062C194.75 31.8021 195.969 35.9479 195.969 41.3438V43.75H173.062C173.146 47.0833 174.115 49.7812 175.969 51.8438C177.844 53.8854 180.219 54.9062 183.094 54.9062C185.135 54.9062 186.865 54.4896 188.281 53.6562C189.698 52.8229 190.938 51.7188 192 50.3438L195.531 53.0938C192.698 57.4479 188.448 59.625 182.781 59.625ZM182.062 29.3125C179.729 29.3125 177.771 30.1667 176.188 31.875C174.604 33.5625 173.625 35.9375 173.25 39H190.188V38.5625C190.021 35.625 189.229 33.3542 187.812 31.75C186.396 30.125 184.479 29.3125 182.062 29.3125ZM223.562 59C223.229 58.3333 222.958 57.1458 222.75 55.4375C220.062 58.2292 216.854 59.625 213.125 59.625C209.792 59.625 207.052 58.6875 204.906 56.8125C202.781 54.9167 201.719 52.5208 201.719 49.625C201.719 46.1042 203.052 43.375 205.719 41.4375C208.406 39.4792 212.177 38.5 217.031 38.5H222.656V35.8438C222.656 33.8229 222.052 32.2188 220.844 31.0312C219.635 29.8229 217.854 29.2188 215.5 29.2188C213.438 29.2188 211.708 29.7396 210.312 30.7812C208.917 31.8229 208.219 33.0833 208.219 34.5625H202.406C202.406 32.875 203 31.25 204.188 29.6875C205.396 28.1042 207.021 26.8542 209.062 25.9375C211.125 25.0208 213.385 24.5625 215.844 24.5625C219.74 24.5625 222.792 25.5417 225 27.5C227.208 29.4375 228.354 32.1146 228.438 35.5312V51.0938C228.438 54.1979 228.833 56.6667 229.625 58.5V59H223.562ZM213.969 54.5938C215.781 54.5938 217.5 54.125 219.125 53.1875C220.75 52.25 221.927 51.0312 222.656 49.5312V42.5938H218.125C211.042 42.5938 207.5 44.6667 207.5 48.8125C207.5 50.625 208.104 52.0417 209.312 53.0625C210.521 54.0833 212.073 54.5938 213.969 54.5938ZM243.781 59H238V11H243.781V59ZM267.094 59.625C262.51 59.625 258.781 58.125 255.906 55.125C253.031 52.1042 251.594 48.0729 251.594 43.0312V41.9688C251.594 38.6146 252.229 35.625 253.5 33C254.792 30.3542 256.583 28.2917 258.875 26.8125C261.188 25.3125 263.688 24.5625 266.375 24.5625C270.771 24.5625 274.188 26.0104 276.625 28.9062C279.062 31.8021 280.281 35.9479 280.281 41.3438V43.75H257.375C257.458 47.0833 258.427 49.7812 260.281 51.8438C262.156 53.8854 264.531 54.9062 267.406 54.9062C269.448 54.9062 271.177 54.4896 272.594 53.6562C274.01 52.8229 275.25 51.7188 276.312 50.3438L279.844 53.0938C277.01 57.4479 272.76 59.625 267.094 59.625ZM266.375 29.3125C264.042 29.3125 262.083 30.1667 260.5 31.875C258.917 33.5625 257.938 35.9375 257.562 39H274.5V38.5625C274.333 35.625 273.542 33.3542 272.125 31.75C270.708 30.125 268.792 29.3125 266.375 29.3125ZM303.344 30.375C302.469 30.2292 301.521 30.1562 300.5 30.1562C296.708 30.1562 294.135 31.7708 292.781 35V59H287V25.1875H292.625L292.719 29.0938C294.615 26.0729 297.302 24.5625 300.781 24.5625C301.906 24.5625 302.76 24.7083 303.344 25V30.375Z" fill="black"/>
<g clip-path="url(#clip0)">
<path d="M306.391 66.8927C307.541 65.743 309.133 65.308 310.619 65.5841C311.813 63.449 313.803 60.8776 316.321 58.3613C318.5 56.1817 320.72 54.3982 322.663 53.1828C320.392 50.59 318.764 48.0895 318.079 46.2203C317.131 46.5631 316.2 46.4798 315.628 45.9069C314.702 44.9799 315.055 43.1238 316.416 41.7607C317.78 40.3965 319.637 40.0431 320.563 40.9702C321.138 41.5451 321.218 42.4729 320.876 43.4224C322.609 44.0565 324.886 45.5045 327.276 47.5209L370.977 1.49411L380 0.00933838L378.347 8.8639L332.599 52.8673C334.549 55.2023 335.952 57.4211 336.573 59.1191C337.522 58.776 338.451 58.8579 339.024 59.4306C339.952 60.3576 339.598 62.2149 338.234 63.5771C336.871 64.9412 335.015 65.2945 334.088 64.3675C333.513 63.7938 333.433 62.8637 333.774 61.9151C331.906 61.2309 329.404 59.6026 326.813 57.3325C325.596 59.2761 323.814 61.4959 321.633 63.6745C319.116 66.191 316.546 68.181 314.411 69.3767C314.687 70.8628 314.252 72.4538 313.103 73.6034C311.249 75.4565 308.244 75.4565 306.39 73.6034C304.536 71.7513 304.536 68.7469 306.391 66.8927ZM376.595 9.27362L377.577 4.38003L375.056 7.7338L332.961 49.8305L376.595 9.27362Z" fill="black"/>
</g>
<g clip-path="url(#clip1)">
<path d="M380.081 54.6983C385.427 54.605 389.685 50.1956 389.592 44.8496C389.498 39.5036 379.646 29.8075 379.646 29.8075C379.646 29.8075 370.139 39.8415 370.232 45.1875C370.325 50.5335 374.735 54.7916 380.081 54.6983ZM379.317 50.5619C376.263 50.6117 373.746 48.1805 373.689 45.1272C373.746 48.1805 376.263 50.6117 379.317 50.5619Z" fill="#D80027"/>
<path d="M395.488 26.0729C395.463 24.6092 392.998 20.8386 389.8 17.1459C386.889 20.7627 384.398 24.6882 384.426 26.266C384.479 29.3208 386.999 31.7541 390.054 31.7007C393.108 31.6474 395.542 29.1277 395.488 26.0729Z" fill="#D80027"/>
<path d="M380.171 20.2188C380.023 19.6771 379.16 18.0364 377.324 15.6187C375.675 17.952 374.774 19.6746 374.639 20.2994C374.661 21.8269 375.918 23.047 377.445 23.0245C378.973 23.0021 380.193 21.7456 380.171 20.2181L380.171 20.2188Z" fill="#D80027"/>
<path d="M380.093 55.3897C374.368 55.4832 369.647 50.9246 369.541 45.1996C369.444 39.6345 378.746 29.7541 379.144 29.3322L379.629 28.8203L380.132 29.315C380.544 29.7228 390.186 39.2724 390.283 44.8376C390.376 50.5628 385.818 55.2833 380.093 55.3897ZM379.664 30.8094C377.752 32.9177 370.848 40.8424 370.923 45.1755C371.01 50.1396 375.105 54.0936 380.069 54.0069C385.033 53.9203 388.987 49.8258 388.9 44.8617C388.824 40.5259 381.648 32.8504 379.664 30.8094Z" fill="#231F20"/>
<path d="M379.329 51.2533C375.894 51.3095 373.062 48.5743 372.998 45.1393L374.381 45.1151C374.431 47.7866 376.633 49.9137 379.305 49.8705L379.329 51.2533Z" fill="#231F20"/>
<path d="M390.066 32.3922C386.631 32.4484 383.798 29.7132 383.734 26.2781C383.69 23.7566 388.332 17.8673 389.263 16.7127L389.781 16.068L390.323 16.6935C393.004 19.7894 396.146 24.1001 396.18 26.0609C396.236 29.4961 393.501 32.3284 390.066 32.3922ZM389.819 18.2328C386.706 22.2003 385.1 25.2418 385.117 26.254C385.164 28.927 387.369 31.056 390.042 31.0094C392.715 30.9627 394.844 28.758 394.797 26.085C394.78 25.0942 393.036 22.0511 389.819 18.2328Z" fill="#231F20"/>
<path d="M377.463 23.6211C375.593 23.6631 374.031 22.2029 373.948 20.3336L373.946 20.2431L373.966 20.1542C374.149 19.2996 375.247 17.3654 376.761 15.2191L377.303 14.4482L377.875 15.199C379.638 17.5252 380.63 19.3006 380.833 20.0322L380.861 20.1314L380.862 20.2323C380.833 22.0953 379.327 23.5967 377.463 23.6211ZM375.338 20.3633C375.45 21.4368 376.36 22.249 377.439 22.2383C378.514 22.2235 379.399 21.3867 379.472 20.314C378.899 19.068 378.185 17.8915 377.345 16.8073C376.541 17.9113 375.868 19.1046 375.338 20.3633Z" fill="#231F20"/>
</g>
<defs>
<clipPath id="clip0">
<rect width="75" height="75" fill="white" transform="matrix(-1 0 0 1 380 0)"/>
</clipPath>
<clipPath id="clip1">
<rect width="40.984" height="40.984" fill="white" transform="translate(362 14.7153) rotate(-1)"/>
</clipPath>
</defs>
</svg>
