<svg width="22" height="28" viewBox="0 0 22 28" fill="none" xmlns="http://www.w3.org/2000/svg">
<path id="fillObj" d="M11.0807 26.903C16.4267 26.8097 20.6848 22.4003 20.5915 17.0543C20.4982 11.7083 10.6463 2.01225 10.6463 2.01225C10.6463 2.01225 1.13872 12.0462 1.23203 17.3922C1.32535 22.7382 5.73474 26.9963 11.0807 26.903ZM10.3169 22.7666C7.2634 22.8164 4.74583 20.3852 4.68908 17.3319C4.74583 20.3852 7.2634 22.8164 10.3169 22.7666Z" fill="#D80027"/>
<path d="M11.0928 27.5944C5.36757 27.6878 0.647061 23.1293 0.540647 17.4043C0.443507 11.8391 9.74624 1.95878 10.1442 1.53687L10.629 1.0249L11.1315 1.51963C11.5439 1.92741 21.1858 11.4771 21.2829 17.0422C21.3764 22.7674 16.8178 27.488 11.0928 27.5944ZM10.6638 3.01409C8.75227 5.12231 1.84783 13.0471 1.92347 17.3801C2.01012 22.3443 6.10453 26.2982 11.0687 26.2116C16.0328 26.1249 19.9868 22.0305 19.9001 17.0663C19.8244 12.7305 12.6477 5.05501 10.6638 3.01409Z" fill="#231F20"/>
<path d="M10.329 23.458C6.89385 23.5142 4.06147 20.779 3.99771 17.3439L5.38053 17.3198C5.43062 19.9913 7.6333 22.1184 10.3049 22.0752L10.329 23.458Z" fill="#231F20"/>
</svg>
